Coordinates
version=1
nRows=11
nColumns=63
inDegrees=yes

Units are S.I. units (second, meters, Newtons, ...)
If the header above contains a line with 'inDegrees', this indicates whether rotational values are in degrees (yes) or radians (no).

endheader
time	pelvis_tilt	pelvis_list	pelvis_rotation	pelvis_tx	pelvis_ty	pelvis_tz	hip_flexion_r	hip_adduction_r	hip_rotation_r	knee_angle_r	knee_angle_r_beta	ankle_angle_r	subtalar_angle_r	mtp_angle_r	hip_flexion_l	hip_adduction_l	hip_rotation_l	knee_angle_l	knee_angle_l_beta	ankle_angle_l	subtalar_angle_l	mtp_angle_l	L5_S1_Flex_Ext	L5_S1_Lat_Bending	L5_S1_axial_rotation	L4_L5_Flex_Ext	L4_L5_Lat_Bending	L4_L5_axial_rotation	L3_L4_Flex_Ext	L3_L4_Lat_Bending	L3_L4_axial_rotation	L2_L3_Flex_Ext	L2_L3_Lat_Bending	L2_L3_axial_rotation	L1_L2_Flex_Ext	L1_L2_Lat_Bending	L1_L2_axial_rotation	L1_T12_Flex_Ext	L1_T12_Lat_Bending	L1_T12_axial_rotation	Abs_r3	Abs_r2	Abs_r1	Abs_t1	Abs_t2	neck_flexion	neck_bending	neck_rotation	arm_flex_r	arm_add_r	arm_rot_r	elbow_flex_r	pro_sup_r	wrist_flex_r	wrist_dev_r	arm_flex_l	arm_add_l	arm_rot_l	elbow_flex_l	pro_sup_l	wrist_flex_l	wrist_dev_l
8.037736	-2.714811	-19.144732	109.606466	0.233376	0.398574	0.949112	18.164406	-3.538702	-33.289675	10.972528	0.191507	28.938210	2.100222	0.000000	26.852080	4.446656	8.382283	20.163244	0.351915	23.876894	17.938769	0.000000	0.113728	-1.145848	2.416309	0.211204	-1.523977	2.567328	0.186843	-2.786014	2.567328	0.129979	-2.786014	2.114270	0.105608	-2.336612	1.963251	0.064984	-1.774918	1.812231	0.812346	-12.962056	13.438784	0.000000	0.000000	27.820002	5.789811	-45.777654	125.567979	-38.426998	133.712782	16.664471	46.339604	-6.877628	2.132127	5.449796	-23.926701	134.047454	1.561816	1.034553	-6.461722	-12.893685
8.056604	-2.461242	-19.326669	110.268121	0.233500	0.398081	0.950454	18.000974	-3.239569	-33.529605	10.146937	0.177097	28.452136	2.076163	0.000000	27.289976	4.419269	8.685108	20.503678	0.357857	23.677453	17.927898	0.000000	0.123613	-1.155317	2.414124	0.229561	-1.536572	2.565006	0.203083	-2.809038	2.565006	0.141277	-2.809038	2.112358	0.114787	-2.355922	1.961476	0.070632	-1.789586	1.810593	0.882953	-13.069176	13.426632	0.000000	0.000000	28.088091	5.677983	-45.960555	126.754683	-36.960526	147.047799	11.978294	37.076924	-6.096265	-0.540905	5.579755	-24.036590	135.395051	1.388879	0.980263	-6.433952	-12.112224
8.075472	-2.257224	-19.298208	110.700963	0.233496	0.397803	0.951387	17.716334	-2.919475	-33.492279	9.536612	0.166445	27.998581	1.860247	0.000000	27.501872	4.326933	8.864544	20.866587	0.364191	23.690447	17.938053	0.000000	0.115177	-1.152298	2.377616	0.213896	-1.532556	2.526217	0.189225	-2.801697	2.526217	0.131636	-2.801697	2.080414	0.106954	-2.349766	1.931813	0.065812	-1.784909	1.783212	0.822699	-13.035023	13.223589	0.000000	0.000000	28.207950	5.576207	-45.846802	127.144894	-35.401479	159.002434	8.077402	28.052041	-5.558907	-3.424917	5.570496	-23.968291	136.565693	1.174266	0.925641	-6.508511	-11.304353
8.094340	-2.106457	-19.065161	110.922372	0.233329	0.397770	0.951894	17.304156	-2.584929	-33.230444	9.129185	0.159334	27.583983	1.495325	0.000000	27.487533	4.175112	8.955591	21.239748	0.370704	23.914014	17.964709	0.000000	0.088805	-1.136918	2.303872	0.164919	-1.512101	2.447864	0.145897	-2.764302	2.447864	0.101495	-2.764302	2.015888	0.082464	-2.318403	1.871896	0.050743	-1.761086	1.727904	0.634324	-12.861044	12.813445	0.000000	0.000000	28.200291	5.576973	-45.460601	126.765622	-33.789478	169.377104	4.977605	19.627071	-6.253053	-6.349035	5.409281	-23.732266	137.553836	0.925538	0.873268	-6.605488	-10.428136
8.113208	-2.021737	-18.599761	110.910462	0.233051	0.398005	0.952118	16.744598	-2.258001	-32.812636	8.946552	0.156147	27.251798	1.114173	0.000000	27.222579	3.964155	8.942280	21.626003	0.377445	24.333671	18.002023	0.000000	0.039817	-1.109356	2.182050	0.073945	-1.475443	2.318428	0.065416	-2.697288	2.318428	0.045507	-2.697288	1.909294	0.036974	-2.262198	1.772916	0.022752	-1.718392	1.636538	0.284412	-12.549254	12.135908	0.000000	0.000000	28.021124	5.646240	-44.752416	125.724484	-32.026489	177.864338	2.637473	12.070687	-8.228474	-9.209402	5.055478	-23.336387	138.011577	0.705330	0.839259	-6.671556	-9.491371
8.132075	-2.030966	-17.869807	110.668238	0.232763	0.398542	0.952185	15.997091	-1.957644	-32.254600	8.974245	0.156630	27.007248	0.733955	0.000000	26.670367	3.712200	8.813040	22.023271	0.384379	24.916610	18.048463	0.000000	-0.037411	-1.073199	1.998023	-0.069476	-1.427355	2.122899	-0.061463	-2.609377	2.122899	-0.042757	-2.609377	1.748270	-0.034740	-2.188468	1.623393	-0.021377	-1.662386	1.498517	-0.267225	-12.140244	11.112403	0.000000	0.000000	27.638138	5.818091	-43.598461	124.147696	-29.971824	184.121974	0.974154	5.644227	-11.285262	-11.874473	4.483204	-22.809768	137.832193	0.566184	0.826033	-6.690241	-8.504726
8.150943	-2.169567	-16.864315	110.225394	0.232566	0.399419	0.952141	15.021032	-1.729170	-31.673709	9.183474	0.160282	26.888382	0.495856	0.000000	25.798512	3.457095	8.570258	22.404869	0.391039	25.599128	18.104756	0.000000	-0.144290	-1.034567	1.735249	-0.267962	-1.375974	1.843703	-0.237055	-2.515447	1.843703	-0.164909	-2.515447	1.518343	-0.133988	-2.109689	1.409890	-0.082448	-1.602545	1.301437	-1.030652	-11.703231	9.650937	0.000000	0.000000	27.011502	6.101750	-41.875065	122.149082	-27.489681	188.004438	-0.122739	0.601303	-15.477956	-14.415540	3.662326	-22.181560	136.902819	0.527243	0.835312	-6.671264	-7.516231
8.169811	-2.455311	-15.586064	109.596356	0.232576	0.400676	0.951953	13.793341	-1.585487	-31.084456	9.525096	0.166244	26.883110	0.406250	0.000000	24.583078	3.220349	8.199167	22.733445	0.396773	26.310142	18.164701	0.000000	-0.278308	-0.998013	1.387437	-0.516846	-1.327357	1.474152	-0.457233	-2.426568	1.474152	-0.318079	-2.426568	1.214008	-0.258437	-2.035147	1.127293	-0.159025	-1.545921	1.040578	-1.987929	-11.289717	7.716510	0.000000	0.000000	26.102953	6.492937	-39.434472	119.777687	-24.452528	189.312523	-0.761915	-2.811822	-20.542186	-16.776574	2.577872	-21.465431	135.307484	0.554988	0.855598	-6.591112	-6.627002
8.188679	-2.893024	-14.066389	108.810189	0.232868	0.402327	0.951533	12.317195	-1.540793	-30.540072	9.951535	0.173687	26.987632	0.511430	0.000000	23.028629	3.023646	7.708735	22.968964	0.400884	26.993118	18.226830	0.000000	-0.432283	-0.967616	0.952055	-0.802792	-1.286929	1.011558	-0.710197	-2.352661	1.011558	-0.494056	-2.352661	0.833048	-0.401418	-1.973162	0.773544	-0.247006	-1.498837	0.714041	-3.087753	-10.945864	5.295042	0.000000	0.000000	24.889829	6.932999	-36.195965	117.043431	-20.799163	188.002586	-1.032198	-4.392758	-26.290058	-18.890537	1.227301	-20.692074	132.890014	0.669951	0.882823	-6.326757	-6.076816
8.207547	-3.461319	-12.363024	107.898779	0.233450	0.404362	0.950749	10.621408	-1.590718	-30.087253	10.402649	0.181560	27.182527	0.841211	0.000000	21.174438	2.877648	7.113588	23.080161	0.402825	27.600759	18.284556	0.000000	-0.594826	-0.944710	0.436688	-1.104652	-1.256464	0.463981	-0.977240	-2.296967	0.463981	-0.679827	-2.296967	0.382102	-0.552356	-1.926452	0.354809	-0.339884	-1.463355	0.327516	-4.248786	-10.686746	2.428728	0.000000	0.000000	23.359785	7.372360	-32.127057	113.967999	-16.562453	184.263691	-1.000922	-4.052448	-32.536314	-20.682541	-0.355878	-19.852454	129.780401	0.803919	0.910411	-5.828739	-5.973171
8.226415	-4.123810	-10.550718	106.893358	0.234277	0.406747	0.949491	8.761571	-1.723364	-29.736918	10.826372	0.188956	27.438441	1.397180	0.000000	19.082288	2.787613	6.437959	23.038856	0.402104	28.097569	18.333396	0.000000	-0.753570	-0.928362	-0.141285	-1.399455	-1.234722	-0.150116	-1.238041	-2.257220	-0.150116	-0.861256	-2.257220	-0.123625	-0.699765	-1.893117	-0.114794	-0.430590	-1.438033	-0.105964	-5.382677	-10.501821	-0.785787	0.000000	0.000000	21.529442	7.739257	-27.283389	110.653132	-11.839066	178.893561	-0.719262	-2.449015	-39.130618	-22.159605	-2.087840	-18.939765	126.346098	0.913190	0.932624	-5.371217	-6.308923
